<svg xmlns="http://www.w3.org/2000/svg" version="1.1" xmlns:xlink="http://www.w3.org/1999/xlink" width="512" height="512" x="0" y="0" viewBox="0 0 32 32" style="enable-background:new 0 0 512 512" xml:space="preserve" class=""><g><path d="M26.9 17.19 16 8.81 5.1 17.19v7.79c0 1.65 1.35 3 3 3h4.19c.55 0 1-.45 1-1v-3.7c0-.55.45-1 1-1h3.42c.55 0 1 .45 1 1v3.7c0 .55.45 1 1 1h4.19c1.65 0 3-1.35 3-3v-7.79z" fill="#ffffff" opacity="1" data-original="#000000" class=""></path><path d="M29 16.02a1 1 0 0 0 .609-1.793l-13-10a1 1 0 0 0-1.219 0l-12.999 10a1 1 0 0 0 1.218 1.586L16 6.282l12.391 9.531c.182.14.396.207.609.207z" fill="#ffffff" opacity="1" data-original="#000000" class=""></path></g></svg>
